<?xml version="1.0" standalone="no"?><svg xmlns="http://www.w3.org/2000/svg" viewBox="0 0 1440 320"><path fill="#91D1C5" fill-opacity="1" d="M0,96L0,128L84.7,128L84.7,32L169.4,32L169.4,128L254.1,128L254.1,256L338.8,256L338.8,64L423.5,64L423.5,224L508.2,224L508.2,32L592.9,32L592.9,320L677.6,320L677.6,256L762.4,256L762.4,256L847.1,256L847.1,288L931.8,288L931.8,160L1016.5,160L1016.5,32L1101.2,32L1101.2,0L1185.9,0L1185.9,192L1270.6,192L1270.6,288L1355.3,288L1355.3,160L1440,160L1440,0L1355.3,0L1355.3,0L1270.6,0L1270.6,0L1185.9,0L1185.9,0L1101.2,0L1101.2,0L1016.5,0L1016.5,0L931.8,0L931.8,0L847.1,0L847.1,0L762.4,0L762.4,0L677.6,0L677.6,0L592.9,0L592.9,0L508.2,0L508.2,0L423.5,0L423.5,0L338.8,0L338.8,0L254.1,0L254.1,0L169.4,0L169.4,0L84.7,0L84.7,0L0,0L0,0Z"></path></svg>