<?xml version="1.0" standalone="no"?><svg xmlns="http://www.w3.org/2000/svg" viewBox="0 0 1440 320"><path fill="#91D1C5" fill-opacity="1" d="M0,96L14.1,101.3C28.2,107,56,117,85,106.7C112.9,96,141,64,169,64C197.6,64,226,96,254,133.3C282.4,171,311,213,339,202.7C367.1,192,395,128,424,122.7C451.8,117,480,171,508,165.3C536.5,160,565,96,593,112C621.2,128,649,224,678,261.3C705.9,299,734,277,762,266.7C790.6,256,819,256,847,261.3C875.3,267,904,277,932,261.3C960,245,988,203,1016,160C1044.7,117,1073,75,1101,48C1129.4,21,1158,11,1186,37.3C1214.1,64,1242,128,1271,176C1298.8,224,1327,256,1355,250.7C1383.5,245,1412,203,1426,181.3L1440,160L1440,320L1425.9,320C1411.8,320,1384,320,1355,320C1327.1,320,1299,320,1271,320C1242.4,320,1214,320,1186,320C1157.6,320,1129,320,1101,320C1072.9,320,1045,320,1016,320C988.2,320,960,320,932,320C903.5,320,875,320,847,320C818.8,320,791,320,762,320C734.1,320,706,320,678,320C649.4,320,621,320,593,320C564.7,320,536,320,508,320C480,320,452,320,424,320C395.3,320,367,320,339,320C310.6,320,282,320,254,320C225.9,320,198,320,169,320C141.2,320,113,320,85,320C56.5,320,28,320,14,320L0,320Z"></path></svg>